<svg width="50" height="50" viewBox="0 0 50 50" fill="none" xmlns="http://www.w3.org/2000/svg">
<g clip-path="url(#clip0_410_62)">
<path d="M19.9219 22.2656V14.5563H25.4844C28.525 14.5563 30.3031 15.9844 30.3031 18.4219C30.3031 20.9281 28.4156 22.2656 24.7906 22.2656H19.9219ZM19.9219 34.0219H25.8531C29.5531 34.0219 31.5094 32.5219 31.5094 29.7188C31.5094 26.9531 29.4781 25.5063 25.6156 25.5063H19.9219V34.0219Z" fill="#009782"/>
<path d="M12.5062 0C9.19102 0 6.01159 1.31696 3.66739 3.66117C1.32319 6.00537 0.00622559 9.18479 0.00622559 12.5V37.5C0.00622559 40.8152 1.32319 43.9946 3.66739 46.3388C6.01159 48.683 9.19102 50 12.5062 50H37.5062C40.8214 50 44.0009 48.683 46.3451 46.3388C48.6893 43.9946 50.0062 40.8152 50.0062 37.5V12.5C50.0062 9.18479 48.6893 6.00537 46.3451 3.66117C44.0009 1.31696 40.8214 0 37.5062 0L12.5062 0ZM15.8187 37.5V11.0781H26.4406C31.4 11.0781 34.3875 13.6063 34.3875 17.6719C34.3875 20.4344 32.3562 22.9062 29.7531 23.3469V23.6594C33.325 24.025 35.7031 26.5688 35.7031 30.0125C35.7031 34.6625 32.3156 37.5 26.6781 37.5H15.8187Z" fill="#009782"/>
</g>
<defs>
<clipPath id="clip0_410_62">
<rect width="50" height="50" fill="white"/>
</clipPath>
</defs>
</svg>
