<svg width="56" height="16" viewBox="0 0 56 16" fill="none" xmlns="http://www.w3.org/2000/svg">
<path d="M1.07995 5.455V0.813999H8.15195V0.0999992H0.263951V12H8.35595V11.286H1.07995V6.169H7.59095V5.455H1.07995ZM12.4495 6.951L9.9675 3.364H9.0495L11.9735 7.495L8.7605 12H9.7295L12.4495 7.988L15.1695 12H16.1385L12.9255 7.495L15.8325 3.364H14.9315L12.4495 6.951ZM17.4746 3.364V15.145H18.2226V10.555C18.8176 11.796 19.8716 12.34 21.1806 12.34C23.9346 12.34 24.9206 9.96 24.9206 7.563C24.9206 5.166 23.9176 3.024 21.2146 3.024C20.0076 3.024 18.8006 3.551 18.2566 4.741H18.2226V3.364H17.4746ZM18.1886 7.733C18.1886 5.217 19.3276 3.619 21.2486 3.619C23.1186 3.619 24.1386 5.217 24.1386 7.546C24.1386 11.116 22.3876 11.745 21.2146 11.745C19.7526 11.745 18.1886 10.657 18.1886 7.733ZM31.2329 3.194H30.8419C29.4309 3.194 28.3599 4.078 27.9519 5.149H27.9179V3.364H27.1699V12H27.9179V7.869C27.9179 4.367 29.7539 3.993 30.8589 3.959C30.9779 3.959 31.1139 3.959 31.2329 3.959V3.194ZM38.5092 9.501C38.2882 10.708 37.3532 11.745 35.6872 11.745C33.0012 11.745 32.4742 9.263 32.4572 7.767H39.3592C39.4102 3.415 36.9622 3.024 35.6532 3.024C31.7772 3.024 31.6752 6.764 31.6752 7.563C31.6752 12.323 34.9392 12.34 35.6532 12.34C38.2202 12.34 39.0532 10.606 39.2572 9.501H38.5092ZM32.4572 7.172C32.4912 5.914 33.0352 3.619 35.6022 3.619C38.1012 3.619 38.5602 5.88 38.5602 7.172H32.4572ZM40.9337 9.535C40.9337 10.98 41.9537 12.34 44.2147 12.34C46.5947 12.34 47.5637 11.201 47.5637 9.705C47.5637 8.056 46.3057 7.682 44.6057 7.274C43.0077 6.883 41.9707 6.73 41.9707 5.37C41.9707 4.452 42.5657 3.619 44.1807 3.619C46.0847 3.619 46.5097 4.826 46.5437 5.574H47.3087C47.2407 4.639 46.7647 3.024 44.1467 3.024C41.4097 3.024 41.1887 4.758 41.1887 5.336C41.1887 6.968 42.2597 7.461 43.7727 7.818C44.0787 7.886 44.4017 7.954 44.7077 8.039C45.8297 8.328 46.7817 8.634 46.7817 9.79C46.7817 10.623 46.2547 11.745 44.3167 11.745C42.5657 11.745 41.6987 10.691 41.6987 9.535H40.9337ZM48.919 9.535C48.919 10.98 49.939 12.34 52.2 12.34C54.58 12.34 55.549 11.201 55.549 9.705C55.549 8.056 54.291 7.682 52.591 7.274C50.993 6.883 49.956 6.73 49.956 5.37C49.956 4.452 50.551 3.619 52.166 3.619C54.07 3.619 54.495 4.826 54.529 5.574H55.294C55.226 4.639 54.75 3.024 52.132 3.024C49.395 3.024 49.174 4.758 49.174 5.336C49.174 6.968 50.245 7.461 51.758 7.818C52.064 7.886 52.387 7.954 52.693 8.039C53.815 8.328 54.767 8.634 54.767 9.79C54.767 10.623 54.24 11.745 52.302 11.745C50.551 11.745 49.684 10.691 49.684 9.535H48.919Z" fill="#009782"/>
</svg>
