<svg width="50" height="50" viewBox="0 0 50 50" fill="none" xmlns="http://www.w3.org/2000/svg">
<g clip-path="url(#clip0_410_82)">
<path d="M25 49.9084C24.2875 49.9084 23.625 49.723 23.0063 49.4021L16.6959 45.7813C15.748 45.2771 16.223 45.0938 16.5084 45.0021C17.7875 44.5896 18.025 44.498 19.3542 43.7625C19.4959 43.6709 19.6875 43.7167 19.8292 43.8084L24.6688 46.6063C24.8563 46.698 25.0959 46.698 25.2375 46.6063L44.1688 36.0146C44.3563 35.923 44.4521 35.7396 44.4521 35.5105V14.373C44.4521 14.1438 44.3584 13.9605 44.1688 13.8688L25.2375 3.32504C25.048 3.23338 24.8105 3.23338 24.6688 3.32504L5.73754 13.8688C5.54796 13.9605 5.45212 14.1896 5.45212 14.373V35.5105C5.45212 35.6938 5.54796 35.923 5.73754 36.0146L10.9084 38.9042C13.7084 40.2792 15.4625 38.675 15.4625 37.0709V16.2084C15.4625 15.9334 15.7 15.6584 16.0334 15.6584H18.4521C18.7375 15.6584 19.0209 15.8875 19.0209 16.2084V37.0688C19.0209 40.6917 16.9813 42.8 13.423 42.8C12.3313 42.8 11.4771 42.8 9.05837 41.6542L4.07712 38.9042C3.47688 38.5741 2.97563 38.0898 2.62514 37.5013C2.27465 36.9127 2.08762 36.2413 2.08337 35.5563V14.4188C2.08337 13.0438 2.84171 11.7605 4.07712 11.073L23.0084 0.47921C23.6247 0.163139 24.3074 -0.00170898 25 -0.00170898C25.6927 -0.00170898 26.3754 0.163139 26.9917 0.47921L45.925 11.0709C47.1584 11.7584 47.9167 13.0417 47.9167 14.4167V35.5542C47.9167 36.9292 47.1584 38.2125 45.925 38.9021L26.9917 49.4917C26.3631 49.7642 25.6852 49.9046 25 49.9042V49.9084ZM30.8355 35.373C22.5334 35.373 20.825 31.7063 20.825 28.5875C20.825 28.3125 21.0625 28.0375 21.3938 28.0375H23.8605C24.1459 28.0375 24.3813 28.2209 24.3813 28.4959C24.7625 30.925 25.8542 32.1167 30.8834 32.1167C34.8688 32.1167 36.5771 31.2459 36.5771 29.1834C36.5771 27.9917 36.1021 27.1209 29.8875 26.525C24.7146 26.0188 21.4896 24.9209 21.4896 20.9313C21.4896 17.2167 24.7146 15.0146 30.125 15.0146C36.198 15.0146 39.1875 17.0334 39.5667 21.4355C39.5625 21.5845 39.5123 21.7286 39.423 21.848C39.3292 21.9396 39.1875 22.0313 39.0438 22.0313H36.5771C36.4573 22.0284 36.3417 21.9866 36.2477 21.9122C36.1537 21.8377 36.0866 21.7348 36.0563 21.6188C35.4855 19.098 34.0146 18.2709 30.125 18.2709C25.7584 18.2709 25.2375 19.7375 25.2375 20.8375C25.2375 22.1688 25.8542 22.5813 31.7375 23.3146C37.573 24.048 40.325 25.1021 40.325 29.0438C40.2771 33.0813 36.8625 35.373 30.8355 35.373Z" fill="#009782"/>
</g>
<defs>
<clipPath id="clip0_410_82">
<rect width="50" height="50" fill="white"/>
</clipPath>
</defs>
</svg>
