<svg width="50" height="50" viewBox="0 0 50 50" fill="none" xmlns="http://www.w3.org/2000/svg">
<g clip-path="url(#clip0_410_46)">
<path d="M50 24.3521C50 21.0396 45.8521 17.9 39.4917 15.9542C40.9604 9.47296 40.3083 4.31462 37.4333 2.66254C36.7367 2.27237 35.9483 2.07598 35.15 2.09379V4.36462C35.6187 4.36462 35.9958 4.45837 36.3125 4.63129C37.6979 5.42712 38.3 8.45212 37.8312 12.3459C37.7188 13.3042 37.5354 14.3125 37.3104 15.3417C35.1805 14.8285 33.0188 14.4575 30.8396 14.2313C29.5414 12.4402 28.125 10.7378 26.6 9.13546C29.9229 6.04796 33.0417 4.35629 35.1625 4.35629V2.08337C32.3583 2.08337 28.6896 4.08129 24.9792 7.54587C21.2708 4.10421 17.6 2.12504 14.7979 2.12504V4.39587C16.9083 4.39587 20.0375 6.07921 23.3604 9.14587C21.9333 10.6459 20.5063 12.3459 19.15 14.2313C16.9663 14.455 14.8007 14.8295 12.6687 15.3521C12.4333 14.3334 12.2604 13.3459 12.1375 12.398C11.6583 8.50212 12.25 5.47712 13.6271 4.67296C13.9312 4.48962 14.3292 4.40629 14.7979 4.40629V2.13546C13.9437 2.13546 13.1667 2.31879 12.4958 2.70421C9.63125 4.35629 8.98958 9.50212 10.4667 15.9646C4.12708 17.923 0 21.05 0 24.3521C0 27.6646 4.14792 30.8042 10.5083 32.748C9.03958 39.2313 9.69167 44.3896 12.5667 46.0396C13.2292 46.4271 14.0042 46.6105 14.8583 46.6105C17.6625 46.6105 21.3312 44.6125 25.0417 41.148C28.75 44.5917 32.4187 46.5688 35.2229 46.5688C36.0273 46.5858 36.8217 46.3888 37.525 45.998C40.3896 44.348 41.0312 39.2021 39.5542 32.7396C45.8729 30.7938 50 27.6542 50 24.3521ZM36.7292 17.5542C36.3333 18.9164 35.8745 20.2595 35.3542 21.5792C34.5024 19.9225 33.5672 18.31 32.5521 16.748C34 16.9625 35.3958 17.2271 36.7313 17.5542H36.7292ZM32.0625 28.4084C31.2687 29.7834 30.4521 31.0896 29.6062 32.3021C26.5484 32.5716 23.473 32.5751 20.4146 32.3125C18.6603 29.8067 17.1261 27.1537 15.8292 24.3834C17.1241 21.6065 18.6518 18.9442 20.3958 16.425C23.4529 16.155 26.5276 16.1508 29.5854 16.4125C30.4312 17.625 31.2583 18.9209 32.0521 20.2875C32.8271 21.6209 33.5312 22.975 34.1729 24.3417C33.5241 25.7249 32.8201 27.0816 32.0625 28.4084ZM35.3542 27.0834C35.9042 28.448 36.375 29.8146 36.7604 31.1396C35.4271 31.4667 34.0187 31.7417 32.5625 31.9542C33.5734 30.378 34.5051 28.7524 35.3542 27.0834ZM25.0208 37.9584C24.0729 36.9792 23.125 35.8896 22.1875 34.6959C23.1042 34.7375 24.0417 34.7688 24.9896 34.7688C25.9479 34.7688 26.8958 34.748 27.8229 34.6959C26.9062 35.8896 25.9583 36.9792 25.0208 37.9584ZM17.4375 31.9542C16.0328 31.7507 14.6383 31.4823 13.2583 31.15C13.6354 29.8355 14.1042 28.4792 14.6333 27.125C15.0521 27.9375 15.4917 28.7542 15.9708 29.5709C16.45 30.3855 16.9375 31.1813 17.4375 31.9542ZM24.9687 10.7459C25.9167 11.725 26.8646 12.8146 27.8021 14.0084C26.8854 13.9667 25.9479 13.9355 25 13.9355C24.0417 13.9355 23.0938 13.9563 22.1667 14.0084C23.0833 12.8146 24.0312 11.725 24.9687 10.7459ZM17.4271 16.75C16.4164 18.3228 15.4847 19.945 14.6354 21.6105C14.1004 20.2822 13.6311 18.9285 13.2292 17.5542C14.5625 17.2375 15.9708 16.9625 17.4271 16.75ZM8.20417 29.5084C4.59583 27.9709 2.2625 25.9521 2.2625 24.3521C2.2625 22.7521 4.59583 20.723 8.20417 19.1959C9.07917 18.8188 10.0375 18.4813 11.0271 18.1667C11.6083 20.1625 12.3729 22.2417 13.3187 24.373C12.4258 26.3775 11.6705 28.4406 11.0583 30.548C10.0905 30.2483 9.13799 29.9013 8.20417 29.5084ZM13.6875 44.0709C12.3021 43.2792 11.7 40.25 12.1687 36.3584C12.2812 35.4 12.4646 34.3896 12.6896 33.3605C14.6854 33.85 16.8667 34.2271 19.1604 34.473C20.4587 36.264 21.875 37.9664 23.4 39.5688C20.0771 42.6563 16.9583 44.348 14.8375 44.348C14.4374 44.3523 14.0424 44.2579 13.6875 44.073V44.0709ZM37.8625 36.3063C38.3417 40.2 37.75 43.2271 36.3729 44.0313C36.0687 44.2146 35.6708 44.2959 35.2021 44.2959C33.0917 44.2959 29.9625 42.6146 26.6396 39.5459C28.0667 38.05 29.4937 36.348 30.85 34.4625C33.0337 34.2388 35.1993 33.8643 37.3312 33.3417C37.5667 34.3709 37.7479 35.3584 37.8625 36.3063ZM41.7854 29.5084C40.9104 29.8855 39.9521 30.223 38.9625 30.5375C38.3395 28.4194 37.5739 26.346 36.6708 24.3313C37.6083 22.2125 38.3604 20.1438 38.9312 18.1563C39.9417 18.4709 40.8979 18.8188 41.7958 19.1959C45.4042 20.7334 47.7375 22.7521 47.7375 24.3521C47.7271 25.9521 45.3937 27.9813 41.7854 29.5084Z" fill="#009782"/>
<path d="M24.9896 29.0105C26.225 29.0105 27.4099 28.5197 28.2835 27.6461C29.1571 26.7725 29.6479 25.5876 29.6479 24.3522C29.6479 23.1167 29.1571 21.9318 28.2835 21.0582C27.4099 20.1846 26.225 19.6938 24.9896 19.6938C23.7541 19.6938 22.5692 20.1846 21.6956 21.0582C20.822 21.9318 20.3312 23.1167 20.3312 24.3522C20.3312 25.5876 20.822 26.7725 21.6956 27.6461C22.5692 28.5197 23.7541 29.0105 24.9896 29.0105Z" fill="#009782"/>
</g>
<defs>
<clipPath id="clip0_410_46">
<rect width="50" height="50" fill="white"/>
</clipPath>
</defs>
</svg>
