<svg width="50" height="50" viewBox="0 0 50 50" fill="none" xmlns="http://www.w3.org/2000/svg">
<g clip-path="url(#clip0_414_116)">
<path d="M24.8667 0.0291748C22.7761 0.0351502 20.6944 0.299658 18.6688 0.816675C8.91876 3.23959 1.18334 12.0708 0.189588 22.0875C-1.03958 31.5625 3.75 41.4313 11.9479 46.325C19.9917 51.3625 30.8917 51.1583 38.7688 45.8604C45.8458 41.2646 50.2521 32.8854 49.9896 24.4333C49.8688 16.0667 45.1771 7.94167 37.9896 3.64167C34.0729 1.22709 29.4667 0.0125081 24.8688 0.0312581L24.8667 0.0291748ZM24.7354 3.56251C35.0375 3.54792 45.1292 11.5063 46.1563 22.1542C48.125 33.9458 38.3375 45.9313 26.3896 46.2792C15.0271 47.4125 4.04792 37.7792 3.72292 26.3688C2.87709 17.1313 8.96667 7.96251 17.6771 4.91042C19.9227 4.01661 22.3184 3.55982 24.7354 3.56459V3.56251ZM35.3417 10.2792C29.7438 14.6229 24.3833 19.2542 18.9063 23.7313C21.4125 23.7667 23.9313 23.7646 26.45 23.7521C29.3875 19.2417 32.4083 14.7938 35.3417 10.2792ZM23.5396 26.225C20.6021 30.7375 17.5813 35.2021 14.6438 39.7125C20.2542 35.3792 25.5917 30.7125 31.1063 26.2625C28.5842 26.2321 26.0619 26.2196 23.5396 26.225V26.225Z" fill="#009782"/>
</g>
<defs>
<clipPath id="clip0_414_116">
<rect width="50" height="50" fill="white"/>
</clipPath>
</defs>
</svg>
