<svg width="50" height="50" viewBox="0 0 50 50" fill="none" xmlns="http://www.w3.org/2000/svg">
<path d="M38.5416 19.8125C36.9792 19.2744 35.6001 18.3069 34.5625 17.0209C33.4188 15.588 31.9626 14.4357 30.3052 13.6522C28.6478 12.8686 26.8331 12.4745 25 12.5C22.5341 12.3254 20.0928 13.086 18.1625 14.6303C16.2321 16.1746 14.9542 18.3893 14.5833 20.8334C15.3139 19.611 16.4134 18.6519 17.7237 18.094C19.034 17.5362 20.4875 17.4085 21.875 17.7292C23.4347 18.283 24.8116 19.2561 25.8541 20.5417C27.004 21.9631 28.463 23.1035 30.1201 23.8761C31.7772 24.6486 33.5886 25.033 35.4166 25C37.8825 25.1747 40.3237 24.4141 42.2541 22.8698C44.1845 21.3255 45.4624 19.1108 45.8333 16.6667C45.116 17.9037 44.0199 18.8773 42.707 19.4438C41.394 20.0103 39.9337 20.1395 38.5416 19.8125ZM11.4583 30.1875C13.0207 30.7257 14.3998 31.6932 15.4375 32.9792C16.5811 34.4121 18.0373 35.5643 19.6947 36.3479C21.3522 37.1315 23.1668 37.5256 25 37.5C27.4659 37.6747 29.9071 36.9141 31.8374 35.3698C33.7678 33.8255 35.0457 31.6108 35.4166 29.1667C34.6861 30.3891 33.5865 31.3482 32.2762 31.906C30.9659 32.4639 29.5125 32.5916 28.125 32.2709C26.5652 31.7171 25.1883 30.7439 24.1458 29.4584C22.9928 28.0405 21.5332 26.9026 19.8769 26.1304C18.2205 25.3581 16.4106 24.9717 14.5833 25C12.1174 24.8254 9.67617 25.586 7.7458 27.1303C5.81543 28.6746 4.53755 30.8893 4.16663 33.3334C4.88393 32.0964 5.97998 31.1227 7.29295 30.5563C8.60592 29.9898 10.0662 29.8606 11.4583 30.1875Z" fill="#009782"/>
</svg>
