<svg width="44" height="44" viewBox="0 0 44 44" fill="none" xmlns="http://www.w3.org/2000/svg">
<path d="M4.49901 14.5558C5.01471 14.0402 5.71406 13.7506 6.44326 13.7506C7.17246 13.7506 7.87181 14.0402 8.38751 14.5558L22 28.1683L35.6125 14.5558C36.1312 14.0548 36.8258 13.7777 37.5469 13.7839C38.2679 13.7902 38.9576 14.0794 39.4675 14.5893C39.9774 15.0991 40.2666 15.7889 40.2729 16.5099C40.2791 17.231 40.0019 17.9256 39.501 18.4443L23.9443 34.001C23.4286 34.5166 22.7292 34.8062 22 34.8062C21.2708 34.8062 20.5715 34.5166 20.0558 34.001L4.49901 18.4443C3.98347 17.9286 3.69385 17.2292 3.69385 16.5C3.69385 15.7708 3.98347 15.0715 4.49901 14.5558Z" fill="#009782"/>
</svg>
