<svg width="89" height="90" viewBox="0 0 89 90" fill="none" xmlns="http://www.w3.org/2000/svg">
<path d="M16.3011 23.4137C15.0763 24.7175 14.7122 25.8015 14.7122 26.6471C14.7122 27.4928 15.08 28.5768 16.3011 29.8806C17.5406 31.1993 19.5084 32.559 22.2227 33.7809C27.6442 36.2172 35.3902 37.8227 44.1366 37.8227C52.8866 37.8227 60.6289 36.2209 66.0504 33.7809C68.7648 32.559 70.7325 31.1993 71.972 29.8806C73.1968 28.5768 73.561 27.4928 73.561 26.6471C73.561 25.8015 73.1931 24.7175 71.972 23.4137C70.7325 22.0949 68.7648 20.7352 66.0504 19.5134C60.6289 17.0771 52.883 15.4715 44.1366 15.4715C35.3865 15.4715 27.6442 17.0734 22.2227 19.5134C19.5084 20.7352 17.5406 22.0949 16.3011 23.4137ZM73.561 38.1208C72.1817 39.0372 70.6553 39.8567 69.037 40.5868C62.4753 43.5409 53.6701 45.2731 44.1366 45.2731C34.6031 45.2731 25.7978 43.5409 19.2362 40.5868C17.6653 39.8891 16.1524 39.0644 14.7122 38.1208V45.2731C14.7122 46.1188 15.08 47.2028 16.3011 48.5066C17.5406 49.8253 19.5084 51.185 22.2227 52.4069C27.6442 54.8469 35.3902 56.4488 44.1366 56.4488C52.8866 56.4488 60.6289 54.8469 66.0504 52.4069C68.7648 51.185 70.7325 49.8253 71.972 48.5066C73.1968 47.2028 73.561 46.1188 73.561 45.2731V38.1208ZM73.561 56.7468C72.1817 57.6632 70.6553 58.4827 69.037 59.2129C62.4753 62.1669 53.6701 63.8992 44.1366 63.8992C34.6031 63.8992 25.7978 62.1669 19.2362 59.2129C17.6653 58.5151 16.1524 57.6904 14.7122 56.7468V63.8992C14.7122 64.7448 15.08 65.8288 16.3011 67.1326C17.5406 68.4514 19.5084 69.8111 22.2227 71.0329C27.6442 73.4729 35.3902 75.0748 44.1366 75.0748C52.8866 75.0748 60.6289 73.4729 66.0504 71.0329C68.7648 69.8111 70.7325 68.4514 71.972 67.1326C73.1968 65.8288 73.561 64.7448 73.561 63.8992V56.7468ZM80.917 63.8992C80.917 67.1699 79.4311 70.0048 77.3015 72.266C75.194 74.5123 72.3141 76.3637 69.037 77.8389C62.4753 80.793 53.6701 82.5252 44.1366 82.5252C34.6031 82.5252 25.7978 80.793 19.2362 77.8389C15.9627 76.3637 13.0791 74.5123 10.9716 72.266C8.84201 70.0085 7.35608 67.1699 7.35608 63.8992V26.6471C7.35608 23.3764 8.84201 20.5453 10.9716 18.2803C13.0791 16.034 15.959 14.1826 19.2362 12.7074C25.7978 9.75334 34.6031 8.02112 44.1366 8.02112C53.6701 8.02112 62.4753 9.75334 69.037 12.7074C72.3104 14.1826 75.194 16.034 77.3015 18.2803C79.4311 20.5453 80.917 23.3764 80.917 26.6471V63.8992Z" fill="black"/>
</svg>
