<svg width="26" height="27" viewBox="0 0 26 27" fill="none" xmlns="http://www.w3.org/2000/svg">
<path d="M17.3989 2.7608C17.7035 3.07725 17.8747 3.5064 17.8747 3.95386C17.8747 4.40133 17.7035 4.83047 17.3989 5.14693L9.35514 13.5001L17.3989 21.8532C17.6949 22.1714 17.8587 22.5977 17.855 23.0402C17.8513 23.4826 17.6804 23.9059 17.3791 24.2188C17.0778 24.5316 16.6702 24.7091 16.2442 24.7129C15.8181 24.7168 15.4076 24.5467 15.1011 24.2393L5.90852 14.6931C5.60388 14.3767 5.43274 13.9475 5.43274 13.5001C5.43274 13.0526 5.60388 12.6234 5.90852 12.307L15.1011 2.7608C15.4059 2.44444 15.8191 2.26672 16.25 2.26672C16.6809 2.26672 17.0942 2.44444 17.3989 2.7608Z" fill="black"/>
</svg>
