<svg width="22" height="22" viewBox="0 0 22 22" fill="none" xmlns="http://www.w3.org/2000/svg">
<path d="M11.0001 13.029C11.2108 13.029 11.4129 12.9453 11.5619 12.7963C11.7109 12.6473 11.7945 12.4453 11.7945 12.2346V8.55567C11.7945 8.34497 11.7109 8.1429 11.5619 7.99392C11.4129 7.84493 11.2108 7.76123 11.0001 7.76123C10.7894 7.76123 10.5873 7.84493 10.4383 7.99392C10.2894 8.1429 10.2057 8.34497 10.2057 8.55567V12.2223C10.204 12.3277 10.2234 12.4323 10.2626 12.5301C10.3018 12.6279 10.36 12.7169 10.434 12.792C10.5079 12.8671 10.596 12.9267 10.6932 12.9674C10.7904 13.0081 10.8947 13.029 11.0001 13.029Z" fill="#FF5C00"/>
<path d="M10.9695 15.7484C11.4758 15.7484 11.8862 15.338 11.8862 14.8317C11.8862 14.3254 11.4758 13.915 10.9695 13.915C10.4633 13.915 10.0529 14.3254 10.0529 14.8317C10.0529 15.338 10.4633 15.7484 10.9695 15.7484Z" fill="#FF5C00"/>
<path d="M18.535 15.6077L12.5828 4.64441C12.4252 4.35487 12.1925 4.11318 11.9091 3.94478C11.6257 3.77638 11.3021 3.6875 10.9725 3.6875C10.6429 3.6875 10.3193 3.77638 10.0359 3.94478C9.75255 4.11318 9.51981 4.35487 9.36223 4.64441L3.4039 15.6077C3.24794 15.8877 3.16808 16.2036 3.17228 16.524C3.17647 16.8444 3.26457 17.1581 3.42779 17.4339C3.59102 17.7096 3.82366 17.9378 4.10254 18.0956C4.38143 18.2534 4.6968 18.3354 5.01723 18.3333H16.9217C17.2395 18.3336 17.5519 18.2513 17.8283 18.0944C18.1047 17.9375 18.3355 17.7115 18.4982 17.4385C18.6609 17.1655 18.7499 16.8549 18.7563 16.5372C18.7628 16.2194 18.6865 15.9055 18.535 15.6261V15.6077ZM17.4472 16.7933C17.3931 16.8845 17.3162 16.9601 17.2241 17.0126C17.1319 17.0651 17.0277 17.0927 16.9217 17.0927H5.01723C4.911 17.093 4.80654 17.0656 4.71413 17.0132C4.62173 16.9608 4.54458 16.8853 4.49029 16.794C4.436 16.7027 4.40645 16.5988 4.40455 16.4926C4.40265 16.3864 4.42846 16.2815 4.47945 16.1883L10.4317 5.22497C10.484 5.12795 10.5617 5.04691 10.6563 4.99042C10.751 4.93394 10.8592 4.90412 10.9695 4.90412C11.0797 4.90412 11.1879 4.93394 11.2826 4.99042C11.3772 5.04691 11.4549 5.12795 11.5072 5.22497L17.4594 16.1883C17.5101 16.2815 17.5356 16.3863 17.5335 16.4924C17.5313 16.5985 17.5016 16.7022 17.4472 16.7933Z" fill="#FF5C00"/>
</svg>
